<svg width="534" height="418" viewBox="0 0 534 418" fill="none" xmlns="http://www.w3.org/2000/svg">
<rect width="534" height="418" fill="#07AF77"/>
<g clip-path="url(#clip0)">
<path d="M345.25 114H187.75C183.573 114 179.567 115.659 176.613 118.613C173.659 121.567 172 125.573 172 129.75V287.25C172 291.427 173.659 295.433 176.613 298.387C179.567 301.341 183.573 303 187.75 303H345.25C349.427 303 353.433 301.341 356.387 298.387C359.341 295.433 361 291.427 361 287.25V129.75C361 125.573 359.341 121.567 356.387 118.613C353.433 115.659 349.427 114 345.25 114V114ZM345.25 137.625V200.625H276.344C275.822 200.625 275.321 200.418 274.952 200.048C274.582 199.679 274.375 199.178 274.375 198.656V129.75H337.375C339.464 129.75 341.467 130.58 342.943 132.057C344.42 133.533 345.25 135.536 345.25 137.625ZM195.625 129.75H258.625V198.656C258.625 199.178 258.418 199.679 258.048 200.048C257.679 200.418 257.178 200.625 256.656 200.625H187.75V137.625C187.75 135.536 188.58 133.533 190.057 132.057C191.533 130.58 193.536 129.75 195.625 129.75ZM187.75 279.375V216.375H256.656C257.178 216.375 257.679 216.582 258.048 216.952C258.418 217.321 258.625 217.822 258.625 218.344V287.25H195.625C193.536 287.25 191.533 286.42 190.057 284.943C188.58 283.467 187.75 281.464 187.75 279.375ZM337.375 287.25H274.375V218.344C274.375 217.822 274.582 217.321 274.952 216.952C275.321 216.582 275.822 216.375 276.344 216.375H345.25V279.375C345.25 281.464 344.42 283.467 342.943 284.943C341.467 286.42 339.464 287.25 337.375 287.25Z" fill="white"/>
</g>
<defs>
<clipPath id="clip0">
<rect width="189" height="189" fill="white" transform="translate(172 114)"/>
</clipPath>
</defs>
</svg>
